<?xml version="1.0" encoding="UTF-8"?>
<svg id="Calque_1" xmlns="http://www.w3.org/2000/svg" version="1.1" viewBox="0 0 212.59 55.21">
  <!-- Generator: Adobe Illustrator 30.6.0, SVG Export Plug-In . SVG Version: 2.1.4 Build 109)  -->
  <defs>
    <style>
      .st0 {
        fill: #1d1d1b;
      }

      .st1 {
        fill: #5457a2;
      }

      .st2 {
        fill: #768eb2;
      }
    </style>
  </defs>
  <path class="st2" d="M186.85,23.44h25.74l-34.55,20.69c-10.14-6.12-22.08-9.7-34.87-9.82v-.35c.81-.25,1.51-.64,2.12-1.19,1.9-1.69,2.28-4.35,2.28-7.83v-5.9c0-3.48-.38-6.14-2.27-7.82-.61-.55-1.31-.95-2.13-1.2v-.2c12.79-.12,24.73-3.7,34.87-9.82l34.55,20.7h-25.74c-.54-1.35-1.85-2.3-3.39-2.3-2.03,0-3.67,1.64-3.67,3.67s1.64,3.66,3.67,3.66c1.54,0,2.85-.95,3.39-2.29h0Z"/>
  <g>
    <path class="st1" d="M15.76,48.69v6.3h-.59v-12.59h4.09v.53h-3.5v5.23h2.98v.53s-2.98,0-2.98,0Z"/>
    <path class="st1" d="M24.71,54.68c-.5-.46-.77-1.21-.77-3.05v-5.86c0-1.83.27-2.61.77-3.05.35-.3.87-.53,1.62-.53s1.29.23,1.63.53c.52.46.79,1.21.79,3.05v5.86c0,1.83-.27,2.57-.79,3.05-.33.32-.85.53-1.63.53s-1.27-.21-1.62-.53ZM27.55,54.26c.39-.33.6-.88.6-2.52v-6.08c0-1.62-.22-2.17-.6-2.52-.27-.25-.69-.39-1.22-.39s-.92.14-1.21.39c-.39.35-.6.9-.6,2.52v6.08c0,1.64.22,2.18.6,2.52.27.25.67.39,1.21.39s.94-.12,1.22-.39Z"/>
    <path class="st1" d="M34.81,42.41l3.48,9.53c.27.74.44,1.16.55,1.6h.05c-.03-.46-.07-1.2-.07-1.69v-9.44h.59v12.59h-.59l-3.55-9.7c-.25-.67-.42-1.16-.55-1.6h-.05c.03.46.07,1.2.07,1.69v9.61h-.57v-12.59h.64Z"/>
    <path class="st1" d="M48.96,43.13c.74.63,1.06,1.55,1.06,3.57v4c0,2.03-.32,2.94-1.06,3.58-.47.4-1.12.72-2.13.72h-1.64v-12.59h1.64c1,0,1.66.32,2.13.72ZM45.78,42.93v11.53h.99c.75,0,1.34-.23,1.78-.6.62-.53.89-1.39.89-3.05v-4.24c0-1.66-.27-2.52-.89-3.05-.44-.37-1.02-.6-1.78-.6h-.99Z"/>
    <path class="st1" d="M55.21,55h-.6l2.21-12.59h.79l2.21,12.59h-.6l-.59-3.36h-2.85s-.57,3.36-.57,3.36ZM55.88,51.09h2.65l-1.07-6.18c-.07-.49-.18-1.16-.22-1.53h-.05c-.05.37-.13,1.04-.23,1.53l-1.07,6.18h-.01Z"/>
    <path class="st1" d="M66.01,42.93v12.06h-.57v-12.06h-2.19v-.53h4.96v.53h-2.2Z"/>
    <path class="st1" d="M73.46,42.41v12.59h-.59v-12.59h.59Z"/>
    <path class="st1" d="M79.66,54.68c-.5-.46-.77-1.21-.77-3.05v-5.86c0-1.83.27-2.61.77-3.05.35-.3.87-.53,1.63-.53s1.29.23,1.62.53c.52.46.79,1.21.79,3.05v5.86c0,1.83-.27,2.57-.79,3.05-.33.32-.85.53-1.62.53s-1.27-.21-1.63-.53ZM82.51,54.26c.39-.33.6-.88.6-2.52v-6.08c0-1.62-.22-2.17-.6-2.52-.27-.25-.69-.39-1.22-.39s-.92.14-1.21.39c-.39.35-.6.9-.6,2.52v6.08c0,1.64.22,2.18.6,2.52.27.25.67.39,1.21.39s.94-.12,1.22-.39Z"/>
    <path class="st1" d="M89.76,42.41l3.48,9.53c.27.74.44,1.16.55,1.6h.05c-.03-.46-.07-1.2-.07-1.69v-9.44h.59v12.59h-.59l-3.55-9.7c-.25-.67-.42-1.16-.55-1.6h-.05c.03.46.07,1.2.07,1.69v9.61h-.57v-12.59h.64Z"/>
  </g>
  <g>
    <path class="st0" d="M7.06,10.96c4.53,0,5.81,2.81,5.81,6.25v12.47c0,.92.12,2.16.24,2.93h-3.69c-.12-.68-.16-1.16-.24-2.45h-.16c-1.44,1.44-2.97,2.69-5.05,2.69-2.36,0-3.97-1.6-3.97-5.05,0-3.13,1.32-5.29,5.17-7.38,1.4-.76,2.97-1.4,3.93-1.8v-1.72c0-1.4-.4-2.81-2.2-2.81s-2.4,1.44-2.49,3.21H.6c.28-3.93,2.25-6.33,6.45-6.33h.01ZM9.1,27.36v-6.25c-2.65,1.12-5.17,2.81-5.17,5.97,0,1.52.64,2.33,1.8,2.33s2.33-.84,3.37-2.04h0Z"/>
    <path class="st0" d="M14.15,22.59v2.16c0,2.97,0,5.01,2.29,5.01,2.57,0,2.57-2.53,2.57-3.93v-.08h3.65v.08c0,2.65-.64,4.65-2.04,5.89-.8.72-1.88,1.28-4.13,1.28-2.04,0-3.21-.48-4.09-1.28-1.64-1.48-2-4.01-2-7.66v-4.17c0-3.61.36-6.13,2-7.62.88-.84,2.16-1.32,4.17-1.32s3.13.48,4.01,1.28c1.64,1.48,2.08,4.05,2.08,7.66v2.69h-8.51ZM14.15,19.82h4.73v-.84c0-2.65,0-4.77-2.4-4.77s-2.33,2.04-2.33,4.77v.84Z"/>
    <path class="st0" d="M38.32,17.01c0-1.48,0-2.65-1.48-2.65-1.16,0-2.16.76-3.09,1.6v13.71l.04,2.93h-3.85l.04-2.93v-15.39l-.04-2.93h3.61v2.41h.04c1.64-1.6,3.21-2.73,5.13-2.73,3.37,0,3.37,3.37,3.37,4.41v14.23l.04,2.93h-3.85l.04-2.93v-12.67h0Z"/>
    <path class="st0" d="M61.64,24.95v.08c0,3.09-.48,5.33-2,6.69-.92.84-2.16,1.28-4.13,1.28-1.76,0-3.09-.36-4.09-1.28-1.64-1.52-2-4.01-2-7.66v-4.17c0-3.65.36-6.13,2-7.62.96-.88,2.2-1.32,4.13-1.32s3.17.44,4.09,1.28c1.44,1.28,1.88,3.41,1.88,6.29v.08h-3.61v-.08c0-2.08,0-4.33-2.4-4.33s-2.33,2.16-2.33,5.01v5.53c0,2.77,0,5.01,2.33,5.01,2.48,0,2.48-2.61,2.48-4.73v-.08h3.65v.02Z"/>
    <path class="st0" d="M77.59,11.12v4.09c-.36-.08-.76-.08-1.12-.08-2.29,0-3.93,1.12-3.93,3.57v10.98l.04,2.93h-3.85l.04-2.93v-15.35l-.04-2.97h3.53v3.05h.2c1.16-2.04,3.05-3.37,4.61-3.37.2,0,.4.04.52.08Z"/>
    <path class="st0" d="M89.33,10.96c4.53,0,5.81,2.81,5.81,6.25v12.47c0,.92.12,2.16.24,2.93h-3.69c-.12-.68-.16-1.16-.24-2.45h-.16c-1.44,1.44-2.97,2.69-5.05,2.69-2.36,0-3.97-1.6-3.97-5.05,0-3.13,1.32-5.29,5.17-7.38,1.4-.76,2.97-1.4,3.93-1.8v-1.72c0-1.4-.4-2.81-2.2-2.81s-2.4,1.44-2.49,3.21h-3.81c.28-3.93,2.25-6.33,6.45-6.33h.01ZM91.38,27.36v-6.25c-2.65,1.12-5.17,2.81-5.17,5.97,0,1.52.64,2.33,1.8,2.33s2.33-.84,3.37-2.04h0Z"/>
    <path class="st0" d="M107.37,27.08c-.6.4-1.12.92-1.12,1.48,0,.64.72.92,1.88,1l3.25.24c3.37.24,5.53,1.64,5.53,4.37,0,3.45-3.49,5.33-8.38,5.33-3.53,0-6.73-.96-6.73-3.45,0-1.64,1.44-2.85,3.65-3.53v-.16c-1.56-.48-2.53-1.2-2.53-2.48s.88-2.61,2.2-3.53v-.12c-1.72-1.08-2.53-3.21-2.53-6.05v-2.24c0-2.73.8-4.57,2-5.65,1-.92,2.28-1.32,3.85-1.32,2.25,0,3.69.8,4.61,2.04h.16c.92-1.8,2.53-2.2,3.53-1.88v3.89c-1.08-.16-1.96-.12-2.57.4.24.88.32,1.8.32,2.69v2.08c0,2.41-.52,4.41-1.88,5.65-.88.8-2.17,1.32-3.97,1.32-.48,0-.92,0-1.28-.08h.01ZM110.98,33.13l-3.13-.24c-1.6.68-2.4,1.44-2.4,2.2,0,1.04,1.4,1.64,3.89,1.64,2.89,0,4.13-.8,4.13-1.96,0-1.04-1.08-1.52-2.49-1.64ZM106.21,20.38c0,1.76,0,3.61,2.37,3.61s2.33-1.84,2.33-3.61v-2.65c0-1.76,0-3.61-2.33-3.61s-2.37,1.84-2.37,3.61v2.65Z"/>
    <path class="st0" d="M126.65,22.59v2.16c0,2.97,0,5.01,2.29,5.01,2.57,0,2.57-2.53,2.57-3.93v-.08h3.65v.08c0,2.65-.64,4.65-2.04,5.89-.8.72-1.88,1.28-4.13,1.28-2.04,0-3.21-.48-4.09-1.28-1.64-1.48-2-4.01-2-7.66v-4.17c0-3.61.36-6.13,2-7.62.88-.84,2.16-1.32,4.17-1.32s3.13.48,4.01,1.28c1.64,1.48,2.08,4.05,2.08,7.66v2.69h-8.51ZM126.65,19.82h4.73v-.84c0-2.65,0-4.77-2.4-4.77s-2.33,2.04-2.33,4.77c0,0,0,.84,0,.84Z"/>
  </g>
</svg>